<svg width="54" height="54" viewBox="0 0 54 54" fill="none" xmlns="http://www.w3.org/2000/svg">
    <g clip-path="url(#clip0_2_1778)">
        <path d="M8.07725 18.032L4.64591 19.9037C4.44455 20.0135 4.26359 20.1485 4.09521 20.2956C6.09578 21.9824 8.67829 23 11.4999 23C14.3007 23 16.8667 21.9976 18.8616 20.3338C18.6776 20.1784 18.478 20.0387 18.2567 19.9285L14.5823 18.0915C14.1076 17.8541 13.8077 17.3689 13.8077 16.8382V15.3966C13.911 15.279 14.029 15.128 14.1553 14.9496C14.6561 14.2422 15.035 13.4642 15.2975 12.6479C15.7688 12.5025 16.116 12.0672 16.116 11.5499V10.0111C16.116 9.67262 15.9654 9.37015 15.7315 9.15838V6.93389C15.7315 6.93389 16.1884 3.47217 11.5003 3.47217C6.81225 3.47217 7.26921 6.93389 7.26921 6.93389V9.15838C7.03487 9.37015 6.88472 9.67262 6.88472 10.0111V11.5499C6.88472 11.9553 7.0978 12.312 7.41676 12.5181C7.80125 14.1919 8.80804 15.3966 8.80804 15.3966V16.8026C8.80761 17.3147 8.52727 17.7864 8.07725 18.032Z" fill="#E7ECED"/>
        <path d="M11.6966 0.00171249C5.34639 -0.106778 0.110204 4.95322 0.00171362 11.3034C-0.059909 14.904 1.54488 18.14 4.10005 20.292C4.26713 20.1462 4.44636 20.0126 4.64554 19.9041L8.07688 18.0324C8.5269 17.7868 8.80724 17.3151 8.80724 16.8021V15.3961C8.80724 15.3961 7.80002 14.1914 7.41596 12.5176C7.09743 12.3115 6.88392 11.9552 6.88392 11.5494V10.0106C6.88392 9.67213 7.03451 9.36966 7.26841 9.15788V6.93339C7.26841 6.93339 6.81145 3.47167 11.4995 3.47167C16.1876 3.47167 15.7307 6.93339 15.7307 6.93339V9.15788C15.965 9.36966 16.1152 9.67213 16.1152 10.0106V11.5494C16.1152 12.0667 15.768 12.502 15.2967 12.6474C15.0342 13.4637 14.6553 14.2417 14.1545 14.9491C14.0282 15.1275 13.9102 15.2785 13.8069 15.3961V16.8377C13.8069 17.3684 14.1068 17.854 14.5815 18.091L18.2559 19.928C18.4764 20.0382 18.6755 20.1775 18.8591 20.3324C21.337 18.2659 22.9379 15.1761 22.9974 11.6966C23.1067 5.34639 18.0472 0.110203 11.6966 0.00171249Z" fill="#556080"/>
    </g>
    <defs>
        <clipPath id="clip0_2_1778">
            <rect width="23" height="23" fill="white"/>
        </clipPath>
    </defs>
</svg>
